<?xml version="1.0" encoding="UTF-8" standalone="no"?>
<!DOCTYPE svg PUBLIC "-//W3C//DTD SVG 1.1//EN"
 "http://www.w3.org/Graphics/SVG/1.1/DTD/svg11.dtd">
<!-- Generated by graphviz version 2.42.3 (20191010.1750)
 -->
<!-- Title: G Pages: 1 -->
<svg width="623pt" height="322pt"
 viewBox="0.00 0.00 622.57 321.97" xmlns="http://www.w3.org/2000/svg" xmlns:xlink="http://www.w3.org/1999/xlink">
<g id="graph0" class="graph" transform="scale(1 1) rotate(0) translate(4 317.97)">
<title>G</title>
<polygon fill="white" stroke="transparent" points="-4,4 -4,-317.97 618.57,-317.97 618.57,4 -4,4"/>
<!-- NEW -->
<g id="node1" class="node">
<title>NEW</title>
<ellipse fill="none" stroke="black" cx="30.24" cy="-190.97" rx="30.49" ry="18"/>
<text text-anchor="middle" x="30.24" y="-186.77" font-family="Times,serif" font-size="14.00">NEW</text>
</g>
<!-- RUNNABLE -->
<g id="node2" class="node">
<title>RUNNABLE</title>
<ellipse fill="none" stroke="black" cx="188.17" cy="-190.97" rx="58.01" ry="18"/>
<text text-anchor="middle" x="188.17" y="-186.77" font-family="Times,serif" font-size="14.00">RUNNABLE</text>
</g>
<!-- NEW&#45;&gt;RUNNABLE -->
<g id="edge1" class="edge">
<title>NEW&#45;&gt;RUNNABLE</title>
<path fill="none" stroke="black" d="M60.57,-190.97C77.32,-190.97 99.07,-190.97 119.79,-190.97"/>
<polygon fill="black" stroke="black" points="119.86,-194.47 129.86,-190.97 119.86,-187.47 119.86,-194.47"/>
<text text-anchor="middle" x="95.2" y="-193.77" font-family="Times,serif" font-size="14.00">start()</text>
</g>
<!-- BLOCKED -->
<g id="node3" class="node">
<title>BLOCKED</title>
<ellipse fill="none" stroke="black" cx="534.22" cy="-295.97" rx="51.73" ry="18"/>
<text text-anchor="middle" x="534.22" y="-291.77" font-family="Times,serif" font-size="14.00">BLOCKED</text>
</g>
<!-- RUNNABLE&#45;&gt;BLOCKED -->
<g id="edge2" class="edge">
<title>RUNNABLE&#45;&gt;BLOCKED</title>
<path fill="none" stroke="black" d="M211.98,-207.41C225.86,-219.56 244.67,-235.06 264.42,-243.97 332.75,-274.8 419.61,-283.93 475.8,-288.56"/>
<polygon fill="black" stroke="black" points="475.67,-292.06 485.92,-289.38 476.23,-285.08 475.67,-292.06"/>
</g>
<!-- TERMINATED -->
<g id="node4" class="node">
<title>TERMINATED</title>
<ellipse fill="none" stroke="black" cx="534.22" cy="-241.97" rx="66.7" ry="18"/>
<text text-anchor="middle" x="534.22" y="-237.77" font-family="Times,serif" font-size="14.00">TERMINATED</text>
</g>
<!-- RUNNABLE&#45;&gt;TERMINATED -->
<g id="edge4" class="edge">
<title>RUNNABLE&#45;&gt;TERMINATED</title>
<path fill="none" stroke="black" d="M213.08,-207.25C227.33,-216.01 246.14,-226.01 264.42,-230.97 328.9,-248.45 405.24,-249.83 460.05,-247.64"/>
<polygon fill="black" stroke="black" points="460.54,-251.12 470.38,-247.18 460.23,-244.13 460.54,-251.12"/>
</g>
<!-- WAITING -->
<g id="node5" class="node">
<title>WAITING</title>
<ellipse fill="none" stroke="black" cx="534.22" cy="-166.97" rx="47.85" ry="18"/>
<text text-anchor="middle" x="534.22" y="-162.77" font-family="Times,serif" font-size="14.00">WAITING</text>
</g>
<!-- RUNNABLE&#45;&gt;WAITING -->
<g id="edge6" class="edge">
<title>RUNNABLE&#45;&gt;WAITING</title>
<path fill="none" stroke="black" d="M245.21,-187.06C308.97,-182.61 412.53,-175.39 476.55,-170.92"/>
<polygon fill="black" stroke="black" points="477.13,-174.39 486.86,-170.2 476.64,-167.41 477.13,-174.39"/>
<text text-anchor="middle" x="350.15" y="-215.77" font-family="Times,serif" font-size="14.00">Object.wait()</text>
<text text-anchor="middle" x="350.15" y="-201.77" font-family="Times,serif" font-size="14.00">Thread.join()</text>
<text text-anchor="middle" x="350.15" y="-187.77" font-family="Times,serif" font-size="14.00">LockSupport.park()</text>
</g>
<!-- TIMED_WAITING -->
<g id="node6" class="node">
<title>TIMED_WAITING</title>
<ellipse fill="none" stroke="black" cx="534.22" cy="-30.97" rx="80.19" ry="18"/>
<text text-anchor="middle" x="534.22" y="-26.77" font-family="Times,serif" font-size="14.00">TIMED_WAITING</text>
</g>
<!-- RUNNABLE&#45;&gt;TIMED_WAITING -->
<g id="edge7" class="edge">
<title>RUNNABLE&#45;&gt;TIMED_WAITING</title>
<path fill="none" stroke="black" d="M193.46,-172.8C201.6,-142.77 222.38,-83.36 264.42,-55.97 293.18,-37.23 377.03,-31.75 443.52,-30.49"/>
<polygon fill="black" stroke="black" points="443.67,-33.99 453.61,-30.33 443.55,-26.99 443.67,-33.99"/>
<text text-anchor="middle" x="350.15" y="-114.77" font-family="Times,serif" font-size="14.00">Thread.sleep(time)</text>
<text text-anchor="middle" x="350.15" y="-100.77" font-family="Times,serif" font-size="14.00">Object.wait(time)</text>
<text text-anchor="middle" x="350.15" y="-86.77" font-family="Times,serif" font-size="14.00">Thread.join(time)</text>
<text text-anchor="middle" x="350.15" y="-72.77" font-family="Times,serif" font-size="14.00">LockSupport.parkNanos(time)</text>
<text text-anchor="middle" x="350.15" y="-58.77" font-family="Times,serif" font-size="14.00">LockSupport.parkUntil(time)</text>
</g>
<!-- BLOCKED&#45;&gt;RUNNABLE -->
<g id="edge3" class="edge">
<title>BLOCKED&#45;&gt;RUNNABLE</title>
<path fill="none" stroke="black" d="M485.43,-302.25C429.94,-302.94 336.79,-294.62 264.42,-261.97 241.69,-251.71 220.2,-232.73 206.05,-216.74"/>
<polygon fill="black" stroke="black" points="208.45,-214.15 199.35,-208.72 203.07,-218.64 208.45,-214.15"/>
</g>
<!-- WAITING&#45;&gt;RUNNABLE -->
<g id="edge5" class="edge">
<title>WAITING&#45;&gt;RUNNABLE</title>
<path fill="none" stroke="black" d="M498.01,-155.13C445.84,-139.46 345.43,-116.51 264.42,-140.97 246.76,-146.3 229.45,-157.28 215.89,-167.6"/>
<polygon fill="black" stroke="black" points="213.62,-164.93 207.96,-173.88 217.97,-170.41 213.62,-164.93"/>
<text text-anchor="middle" x="350.15" y="-157.77" font-family="Times,serif" font-size="14.00">Object.notify()</text>
<text text-anchor="middle" x="350.15" y="-143.77" font-family="Times,serif" font-size="14.00">Object.notifyAll()</text>
</g>
<!-- TIMED_WAITING&#45;&gt;RUNNABLE -->
<g id="edge8" class="edge">
<title>TIMED_WAITING&#45;&gt;RUNNABLE</title>
<path fill="none" stroke="black" d="M487.23,-16.24C430.14,-0.93 332.04,15.29 264.42,-27.97 217.74,-57.83 199.6,-124.83 192.88,-162.98"/>
<polygon fill="black" stroke="black" points="189.41,-162.49 191.27,-172.92 196.32,-163.61 189.41,-162.49"/>
</g>
</g>
</svg>
